<svg xmlns="http://www.w3.org/2000/svg" width="570" height="390" viewBox="0 0 570 390">
  <g id="Group_15" data-name="Group 15" transform="translate(-284 -479)">
    <g id="Group_14" data-name="Group 14" transform="translate(72 -68)">
      <rect id="Rectangle_11" data-name="Rectangle 11" width="570" height="390" transform="translate(212 547)" fill="rgba(255,255,255,0)"/>
    </g>
    <g id="World_Children_s_Day-bro_1_" data-name="World Children&apos;s Day-bro (1)" transform="translate(315.068 466.104)">
      <g id="freepik--background-simple--inject-196" transform="translate(31.153 40.958)">
        <path id="Path_1" data-name="Path 1" d="M381.4,83.988C370.43,64.165,359.636,45.662,325.491,42.38c-26.764-2.537-57.455-2.7-81.993,8.237-21.312,9.505-29.455,31.146-50.144,41.193-16.2,7.856-36.163,5.92-54.685,4.279-38.241-3.383-75.017,9.023-95.093,38.453a71.51,71.51,0,0,0,.722,81.6c6.847,9.7,16.029,18.047,23.251,27.544s12.526,20.837,10.221,31.992c-1.979,9.345-8.9,17.277-13.258,26-11.636,23.3-2.533,52.525,20.154,68.812,15.93,11.433,36.836,16.567,57.475,18.782,32.651,3.5,65.9.4,97.952-5.92,19.234-3.772,38.716-8.736,58.375-6.943,16.672,1.531,32.146,7.822,47.9,12.753,18.542,5.793,38.28,9.793,57.94,8.237,24.221-1.911,46.5-13.083,56.278-32.736,11.319-22.766,2.968-48.77-5.016-72.559-8.469-25.37-13.318-49.345-.851-74.309,10.547-21.142,29.069-47.7,6.768-68.17-14.327-13.15-35.441-17.3-51.2-28.609C396.016,110.8,388.665,97.1,381.4,83.988Z" transform="translate(-31.153 -40.958)" fill="#1f3680"/>
        <path id="Path_2" data-name="Path 2" d="M381.4,83.988C370.43,64.165,359.636,45.662,325.491,42.38c-26.764-2.537-57.455-2.7-81.993,8.237-21.312,9.505-29.455,31.146-50.144,41.193-16.2,7.856-36.163,5.92-54.685,4.279-38.241-3.383-75.017,9.023-95.093,38.453a71.51,71.51,0,0,0,.722,81.6c6.847,9.7,16.029,18.047,23.251,27.544s12.526,20.837,10.221,31.992c-1.979,9.345-8.9,17.277-13.258,26-11.636,23.3-2.533,52.525,20.154,68.812,15.93,11.433,36.836,16.567,57.475,18.782,32.651,3.5,65.9.4,97.952-5.92,19.234-3.772,38.716-8.736,58.375-6.943,16.672,1.531,32.146,7.822,47.9,12.753,18.542,5.793,38.28,9.793,57.94,8.237,24.221-1.911,46.5-13.083,56.278-32.736,11.319-22.766,2.968-48.77-5.016-72.559-8.469-25.37-13.318-49.345-.851-74.309,10.547-21.142,29.069-47.7,6.768-68.17-14.327-13.15-35.441-17.3-51.2-28.609C396.016,110.8,388.665,97.1,381.4,83.988Z" transform="translate(-31.153 -40.958)" fill="#fff" opacity="0.7"/>
      </g>
      <g id="freepik--Rocket--inject-196" transform="translate(138.124 22.4)">
        <path id="Path_3" data-name="Path 3" d="M225.7,84.52s-6.11-7.86-9.09-7.9-5.79,6.2-7.88,5.87S204.37,75,199,76.69s-6.7,10-10.27,9.7-20.84-30.77-20.84-30.77l-12.44,7.23s18.61,29.68,17,32.89-9.36-.06-13.66,3.61.6,9.41-.22,11.35-6.19.92-7.72,3.48.48,12,.48,12L186.19,99.5h0Z" transform="translate(-139.547 -22.4)" fill="#fff" stroke="#263238" stroke-miterlimit="10" stroke-width="1"/>
        <path id="Path_4" data-name="Path 4" d="M144,48.19,140.72,63l3.87,7.35,9.68-5.09A90.464,90.464,0,0,1,144,48.19Z" transform="translate(-139.547 -22.4)" fill="#1f3680" stroke="#263238" stroke-miterlimit="10" stroke-width="1"/>
        <path id="Path_5" data-name="Path 5" d="M160.77,39.35l14,5.68,3.87,7.35L169,57.48A89.99,89.99,0,0,0,160.77,39.35Z" transform="translate(-139.547 -22.4)" fill="#1f3680" stroke="#263238" stroke-miterlimit="10" stroke-width="1"/>
        <path id="Path_6" data-name="Path 6" d="M141,22.4s-7.93,23,13.26,42.82L169.9,57S166.06,30.45,141,22.4Z" transform="translate(-139.547 -22.4)" fill="#fff" stroke="#263238" stroke-miterlimit="10" stroke-width="1"/>
        <path id="Path_7" data-name="Path 7" d="M149,59.44a51.9,51.9,0,0,0,5.31,5.78L169.9,57a42.441,42.441,0,0,0-2-7.5Z" transform="translate(-139.547 -22.4)" fill="#1f3680" stroke="#263238" stroke-miterlimit="10" stroke-width="1"/>
        <circle id="Ellipse_2" data-name="Ellipse 2" cx="6.14" cy="6.14" r="6.14" transform="matrix(0.281, -0.96, 0.96, 0.281, 3.377, 21.602)" fill="#1f3680" stroke="#263238" stroke-miterlimit="10" stroke-width="1"/>
        <path id="Path_8" data-name="Path 8" d="M154,38a3.85,3.85,0,1,0,.276,2.939A3.85,3.85,0,0,0,154,38Z" transform="translate(-139.547 -22.4)" fill="#fff" stroke="#263238" stroke-miterlimit="10" stroke-width="1"/>
      </g>
      <g id="freepik--Stars--inject-196" transform="translate(46.91 19.83)">
        <path id="Path_9" data-name="Path 9" d="M446.17,207.99,438,213.66l.05,9.94-7.92-6.01-9.44,3.12,3.27-9.39-5.88-8.02,9.94.21,5.81-8.07,2.87,9.52Z" transform="translate(-51.626 -16.969)" fill="#fff" stroke="#263238" stroke-miterlimit="10" stroke-width="1"/>
        <path id="Path_10" data-name="Path 10" d="M64.56,247.88l-1.96,6.81,4.5,5.48-7.09.24-3.82,5.97-2.42-6.67-6.86-1.78,5.6-4.36-.42-7.08,5.87,3.97Z" transform="translate(-46.91 -16.235)" fill="#fff" stroke="#263238" stroke-miterlimit="10" stroke-width="1"/>
        <path id="Path_11" data-name="Path 11" d="M179.36,335.93l-1.96,6.81,4.5,5.48-7.09.24-3.82,5.97-2.41-6.66-6.86-1.79,5.59-4.36-.42-7.08,5.87,3.97Z" transform="translate(-48.299 -14.838)" fill="#fff" stroke="#263238" stroke-miterlimit="10" stroke-width="1"/>
        <path id="Path_12" data-name="Path 12" d="M344.48,335.93l-1.97,6.81,4.5,5.48-7.08.24-3.82,5.97-2.42-6.66-6.86-1.79,5.59-4.36-.42-7.08,5.87,3.97Z" transform="translate(-50.296 -14.838)" fill="#fff" stroke="#263238" stroke-miterlimit="10" stroke-width="1"/>
        <path id="Path_13" data-name="Path 13" d="M99.17,124.23l-1.37,4.78,3.15,3.84-4.97.16-2.67,4.19-1.7-4.67-4.8-1.26,3.92-3.05-.3-4.96,4.12,2.79Z" transform="translate(-46.91 -18.22)" fill="#fff" stroke="#263238" stroke-miterlimit="10" stroke-width="1"/>
        <path id="Path_14" data-name="Path 14" d="M190.6,26.57l-4.3,2.5-.37,4.96-3.7-3.31-4.83,1.17,2-4.55-2.61-4.22,4.95.5,3.21-3.79L186,24.69Z" transform="translate(-48.456 -19.83)" fill="#fff" stroke="#263238" stroke-miterlimit="10" stroke-width="1"/>
        <path id="Path_15" data-name="Path 15" d="M455.21,223.38l-1.38,4.78,3.16,3.84-4.97.16-2.68,4.19-1.69-4.67-4.81-1.25,3.92-3.06-.29-4.96,4.11,2.79Z" transform="translate(-51.626 -16.676)" fill="#fff" stroke="#263238" stroke-miterlimit="10" stroke-width="1"/>
        <path id="Path_16" data-name="Path 16" d="M297.56,47.55l-1.97,6.81,4.5,5.48-7.08.24-3.82,5.97-2.42-6.66-6.86-1.79,5.59-4.36-.42-7.08,5.87,3.97Z" transform="translate(-49.728 -19.83)" fill="#fff" stroke="#263238" stroke-miterlimit="10" stroke-width="1"/>
      </g>
      <g id="freepik--World--inject-196" transform="translate(119.882 74.898)">
        <ellipse id="Ellipse_3" data-name="Ellipse 3" cx="133.18" cy="135.676" rx="133.18" ry="135.676" transform="translate(0 0.032)" fill="#1f3680" stroke="#263238" stroke-miterlimit="10" stroke-width="1"/>
        <path id="Path_17" data-name="Path 17" d="M228.71,331.33a124.329,124.329,0,0,0,21.71,2.76" transform="translate(-122.28 -69.906)" fill="none" stroke="#263238" stroke-miterlimit="10" stroke-width="1"/>
        <path id="Path_18" data-name="Path 18" d="M212.39,326.6c3.61,1.31,7.28,2.47,11,3.45" transform="translate(-122.28 -69.906)" fill="none" stroke="#263238" stroke-miterlimit="10" stroke-width="1"/>
        <path id="Path_19" data-name="Path 19" d="M134.19,173.61a126.13,126.13,0,0,0,73.64,151.22" transform="translate(-122.28 -69.906)" fill="none" stroke="#263238" stroke-miterlimit="10" stroke-width="1"/>
        <path id="Path_20" data-name="Path 20" d="M151.14,137.34a127.3,127.3,0,0,0-11.65,21.32" transform="translate(-122.28 -73.626)" fill="none" stroke="#263238" stroke-miterlimit="10" stroke-width="1"/>
        <path id="Path_21" data-name="Path 21" d="M237.41,148.96l13.58,2.81,4.63,4.8,6.03.93,1.92,5.72-1.41,3.88-4.11,1.88-10.08-1.64-.27-1.24,4.76-3.32-3.29-6.07-9.01-1.24-4.8-4.11Z" transform="translate(-122.28 -73.397)" fill="#fff" stroke="#263238" stroke-miterlimit="10" stroke-width="1"/>
        <path id="Path_22" data-name="Path 22" d="M346.83,274.25l-10.77-1.82-13-1.65-9.56,2.12-9.36.14-9.4,4.35-5.48,1.55-3.4.75-5.66,5.14-5.62,3.84-9.5-3.4.25-9.11-5.73-1-6.17,1.37L251.9,274l-.62-5.69-2.84-2.61-4.19,1.58-.55,3.36-5.17,1.47-5.86-4.52-3.5-7,2.71-9.67,9.08-1.37,2.95,1.62,3.71-.83,4-3.8,4.28.34,7.68,8.33,2.09-.78-2.19-7-2.67-3.3-.69-6,10.32-7.47-1-11.76,4-5.11,2.44-8,2.95-1.31,6.07-6.2-.24-2.54-4.87,1.41-1.47-2.27-3.4.76-5,2.4,1.58-4.56L281.7,188l1.85-3.32,5.83,5.83,3.4,2.16,4-2.2-2.74-3.6-7.51-3.18L277.32,177l-8.88-3.53-7.68.41L256.23,171l-5.21-.14-.34,1.37,1.37,9.08,1.92,2.82-.59,10.49-7.26-3.57v-4.53l-7.16-1.64-3.53-2.78-.17-8.06,7.51-8.46-1-7.55-3.33,1.07-2.77-2.3-2-4.42-2.23.17-.13,5.21L228,159.14l-3.94-10.46-2.81-1-4.73-.89-4.39,3.56,7.47,4.49,2.4,5-13-5.86-9.56-6.62L197,139.15l-8.57-.69-5.28,5.38a49.778,49.778,0,0,1-4.08,3.5c-1.41,1-7.13,2.88-7.13,2.88l-.07,5.52-7,1.88,1.37,3.26,11.83-.68,7.3,5.17,2.4,10.8-1.27,10.32,2.88,10-5.29,17,3.15,22.93,5.66,12.35,6.2,9,4.77-.41-2.64-4.6-3.29-3.15-3.05-6.45,2.64-1.23,6.78,10.15,5.28,9.19,1.78,8,7.44,5.79L231,280.54l17,.76,6,3.53,4.8,4.11,6.3,2.16,7.2.35,6.72-1.82s.38,3.15.72,4.7-2.81,7.75-2.81,7.75l-2,6.92,4,6.24,7.41,1.27L298,324.26l4.73.89,1,4.63,1,2A132.7,132.7,0,0,0,362.76,287l-.33-2.27,5-17-4.63-1.89Z" transform="translate(-122.28 -69.906)" fill="#fff" stroke="#263238" stroke-miterlimit="10" stroke-width="1"/>
        <path id="Path_23" data-name="Path 23" d="M351.85,145.24l-4.69-5.11-5.83-5.83-3.29-9,5.76-.31-.38-3.15-4.08.58,3.05-2.3,3.23-3-.69-3.09-4.8-4.11-2.26-6.47a133.28,133.28,0,0,0-160.8-3.08l8.24,3.46-3.09,6.51-5.59,2.54,1.24,8.47-2.27,1.47-2.33,4.08,1.54,5.49,5.39-.55-1,5.72,5.25-1.16,6.41-13.4-.17-5.14,8.5-2.53,1.34-4.19,8.74-2.91-.24-5.45,6.41-1.75s4.08-3.5,5-3.7a37.869,37.869,0,0,1,5.59.38l5.45,2.67L238,99l4.8-4.62,7.23-1a7.86,7.86,0,0,0,3.67.48c1.54-.35,5.69-3.53,5.69-3.53l10.18,3.56,4.32,2,1,4.63,4.77-.41.92-3.12,4.43,1,.24,2.53L276.54,105l6.75,5.62,12.48,3.71,6,5.14,6.92-.89.86-3.43,2.33-1.16-9.39-4.39-5.07.48,3.73-2.13-4.87-4.42,5.18-1.48,7.61,2.2,3.19,7.06,4.28,3.26,4.77,8.33,7.88,3.43,2.27,10.18,8.12,3.06L340,143v4.22l3.09,5.14,1.23,2.64,5.45-.24,1.3-5.79Z" transform="translate(-122.28 -74.898)" fill="#fff" stroke="#263238" stroke-miterlimit="10" stroke-width="1"/>
        <path id="Path_24" data-name="Path 24" d="M349,113.26l.39,1.77-.44,5.28,1.88,4.12,3.67.48,1.3,5.86-4-.72,2.77,16.87-2.19,7.61,4.38,8.09,4.84,2.81,3.7,16.67,6.89,12.06,6.51,8.92,7.51.27,1.1-6.72.83-1a135.57,135.57,0,0,0-2.59-16.38A132.57,132.57,0,0,0,349,113.26Z" transform="translate(-122.28 -74.898)" fill="#fff" stroke="#263238" stroke-miterlimit="10" stroke-width="1"/>
        <path id="Path_25" data-name="Path 25" d="M277.25,127.16l-22.35-4.43-8.88,2.3-.86,6.34-4.59-3.19-6.44,3.05,1.64,10.32,6.44,2.78,2.71-6.75,5.66,3.6,11.42,6.2,3.83,8.54,10.29,8.4,12.48-5.04-1.34-4.55-3.94-4.63-3.36-12.21,1.92-5.93Z" transform="translate(-122.28 -73.836)" fill="#fff" stroke="#263238" stroke-miterlimit="10" stroke-width="1"/>
        <path id="Path_26" data-name="Path 26" d="M295.42,130.25l-4.9-.21-3.26,4.29,4.15,8.46,4.01-.89Z" transform="translate(-122.28 -73.813)" fill="#fff" stroke="#263238" stroke-miterlimit="10" stroke-width="1"/>
        <path id="Path_27" data-name="Path 27" d="M325.42,129.74l-11.72-3.23-2.99-3.22-2.26,1.48,3.53,5.69,3.64,7.61,5.04.82.65-1.44-3.81-4.01,8.71,1.3Z" transform="translate(-122.28 -73.935)" fill="#fff" stroke="#263238" stroke-miterlimit="10" stroke-width="1"/>
        <path id="Path_28" data-name="Path 28" d="M260.06,261.14l-.96,1.51,9.87.72,4.66,3.5,6-.69,1.41-3.87-7.37.34Z" transform="translate(-122.28 -71.331)" fill="#fff" stroke="#263238" stroke-miterlimit="10" stroke-width="1"/>
        <path id="Path_29" data-name="Path 29" d="M288.82,260.9l-6.07,3.29,1.48,2.27,8.02-1.79,1-2.81-2.71.93Z" transform="translate(-122.28 -71.338)" fill="#fff" stroke="#263238" stroke-miterlimit="10" stroke-width="1"/>
      </g>
      <g id="freepik--Airplane--inject-196" transform="translate(64.583 62.24)">
        <path id="Path_30" data-name="Path 30" d="M415,77.52,357.47,62.24,371.24,80Z" transform="translate(-69.3 -62.24)" fill="#fff" stroke="#263238" stroke-linecap="round" stroke-linejoin="round" stroke-width="1"/>
        <path id="Path_31" data-name="Path 31" d="M371.24,80l-.43,11.95L415,77.52Z" transform="translate(-69.3 -62.24)" fill="#fff" stroke="#263238" stroke-linecap="round" stroke-linejoin="round" stroke-width="1"/>
        <path id="Path_32" data-name="Path 32" d="M376.45,85.97l-5.64,5.98L415,77.52Z" transform="translate(-69.3 -62.24)" fill="#fff" stroke="#263238" stroke-linecap="round" stroke-linejoin="round" stroke-width="1"/>
        <path id="Path_33" data-name="Path 33" d="M415,77.52l-38.55,8.45,10.05,17.51Z" transform="translate(-69.3 -62.24)" fill="#fff" stroke="#263238" stroke-linecap="round" stroke-linejoin="round" stroke-width="1"/>
        <path id="Path_34" data-name="Path 34" d="M361.77,89.21l-1.48.2" transform="translate(-69.3 -62.24)" fill="none" stroke="#263238" stroke-linecap="round" stroke-linejoin="round" stroke-width="1"/>
        <path id="Path_35" data-name="Path 35" d="M357.33,89.83C324.51,94.51,119.43,125.56,76.6,176c-38.08,44.85,25.2,57.41,40,59.68" transform="translate(-64.583 -62.24)" fill="none" stroke="#263238" stroke-linecap="round" stroke-linejoin="round" stroke-width="1" stroke-dasharray="2.988 2.988"/>
        <path id="Path_36" data-name="Path 36" d="M118,235.89c.95.14,1.48.19,1.48.19" transform="translate(-64.583 -62.24)" fill="none" stroke="#263238" stroke-linecap="round" stroke-linejoin="round" stroke-width="1"/>
      </g>
      <g id="freepik--Clouds--inject-196" transform="translate(64.116 54.607)">
        <path id="Path_85" data-name="Path 85" d="M138.54,76.15a11.14,11.14,0,0,0-14.37-10.66,16.31,16.31,0,0,0-30.74-.06,10.91,10.91,0,0,0-3-.42,11.14,11.14,0,0,0-2.31,22L130,87a11.14,11.14,0,0,0,8.54-10.85Z" transform="translate(-64.116 -54.607)" fill="#fff" stroke="#263238" stroke-miterlimit="10" stroke-width="1"/>
        <path id="Path_86" data-name="Path 86" d="M148.51,81.68a5.47,5.47,0,0,0-7.07-5.24,8,8,0,0,0-15.13,0,5.48,5.48,0,1,0-2.6,10.64h20.6A5.48,5.48,0,0,0,148.51,81.68Z" transform="translate(-64.116 -54.607)" fill="#fff" stroke="#263238" stroke-miterlimit="10" stroke-width="1"/>
        <path id="Path_87" data-name="Path 87" d="M443.1,139.73a11.14,11.14,0,0,0-14.37-10.66A16.32,16.32,0,0,0,398,129a10.89,10.89,0,0,0-3-.42,11.14,11.14,0,0,0-2.31,22l41.88-.08a11.14,11.14,0,0,0,8.53-10.77Z" transform="translate(-68.832 -54.607)" fill="#fff" stroke="#263238" stroke-miterlimit="10" stroke-width="1"/>
        <path id="Path_88" data-name="Path 88" d="M453.07,145.27a5.48,5.48,0,0,0-5.48-5.48A5.56,5.56,0,0,0,446,140a8,8,0,0,0-15.13,0,5.421,5.421,0,0,0-1.46-.2,5.48,5.48,0,0,0-1.14,10.84h20.61A5.48,5.48,0,0,0,453.07,145.27Z" transform="translate(-68.832 -54.607)" fill="#fff" stroke="#263238" stroke-miterlimit="10" stroke-width="1"/>
        <path id="Path_89" data-name="Path 89" d="M123.2,237.93a11.13,11.13,0,0,0-14.36-10.67,16.32,16.32,0,0,0-30.75-.06,11.291,11.291,0,0,0-3-.42,11.14,11.14,0,0,0-2.31,22l41.88-.08A11.11,11.11,0,0,0,123.2,237.93Z" transform="translate(-64.116 -54.607)" fill="#fff" stroke="#263238" stroke-miterlimit="10" stroke-width="1"/>
        <path id="Path_90" data-name="Path 90" d="M133.17,243.46a5.48,5.48,0,0,0-5.48-5.48,5.61,5.61,0,0,0-1.59.23,8,8,0,0,0-15.12,0,5.48,5.48,0,1,0-2.61,10.64h20.61A5.48,5.48,0,0,0,133.17,243.46Z" transform="translate(-64.116 -54.607)" fill="#fff" stroke="#263238" stroke-miterlimit="10" stroke-width="1"/>
      </g>
    </g>
  </g>
</svg>
